<?xml version="1.0" encoding="utf-8"?>
<!-- Generator: Adobe Illustrator 27.0.0, SVG Export Plug-In . SVG Version: 6.00 Build 0)  -->
<svg version="1.1" id="Camada_1" xmlns="http://www.w3.org/2000/svg" xmlns:xlink="http://www.w3.org/1999/xlink" x="0px" y="0px"
	 viewBox="0 0 137 137" style="enable-background:new 0 0 137 137;" xml:space="preserve">
<style type="text/css">
	.st0{fill:#AE32DA;}
	.st1{fill:#FFFFFF;}
	.st2{fill:#9037C0;}
	.st3{fill:#ED7F2C;}
	.st4{fill:#FCB221;}
	.st5{fill:#FFB900;}
	.st6{fill:#D1611E;}
	.st7{fill:#A547CE;}
	.st8{fill:#391312;}
	.st9{fill:#8FFF95;}
	.st10{enable-background:new    ;}
	.st11{fill:#5F2123;}
</style>
<g>
	<path class="st0" d="M113.6,33.3L75.9,11.5c-4.8-2.8-10.7-2.8-15.5,0L22.8,33.3C18,36,15,41.1,15,46.7v43.5c0,5.5,3,10.6,7.7,13.4
		l37.7,21.8c4.8,2.8,10.7,2.8,15.5,0l37.7-21.8c4.8-2.8,7.7-7.9,7.7-13.4V46.7C121.3,41.2,118.4,36,113.6,33.3z"/>
	<g>
		<path class="st1" d="M68.2,9.4c2.7,0,5.3,0.7,7.7,2.1l37.7,21.8c4.8,2.8,7.7,7.9,7.7,13.4v43.5c0,5.5-2.9,10.6-7.7,13.4
			l-37.7,21.8c-2.4,1.4-5.1,2.1-7.7,2.1s-5.3-0.7-7.7-2.1l-37.7-21.8C18,100.8,15,95.7,15,90.2V46.7c0-5.5,3-10.6,7.7-13.4
			l37.7-21.8C62.8,10.1,65.5,9.4,68.2,9.4 M68.2,4.4c-3.6,0-7.1,0.9-10.2,2.7L20.3,28.9C14,32.6,10,39.4,10,46.7v43.5
			c0,7.3,3.9,14.1,10.2,17.7l37.7,21.8c3.1,1.8,6.7,2.7,10.2,2.7s7.1-0.9,10.2-2.7l37.7-21.8c6.3-3.7,10.2-10.4,10.2-17.7V46.7
			c0-7.3-3.9-14.1-10.2-17.7L78.4,7.2C75.3,5.4,71.8,4.4,68.2,4.4L68.2,4.4z"/>
	</g>
	<path id="XMLID_4_" class="st1" d="M84.1,23.2L84.1,23.2c-2,0-3.7-1.6-3.7-3.7l0,0c0-0.8-0.6-1.6-1.4-1.6c-0.9-0.1-1.8,0.6-1.8,1.6
		v0.1c0,2-1.6,3.7-3.7,3.7l0,0c-0.8,0-1.6,0.6-1.7,1.4c-0.1,1,0.7,1.8,1.6,1.8h0.1c2,0,3.7,1.6,3.7,3.7c0,0.8,0.5,1.5,1.3,1.6
		c1,0.2,1.9-0.6,1.9-1.6V30c0-2,1.6-3.7,3.7-3.7h0.1c0.9,0,1.7-0.8,1.6-1.8C85.6,23.8,84.9,23.2,84.1,23.2z"/>
	<path class="st2" d="M15,65.1v25.1c0,5.5,2.9,10.6,7.7,13.4l37.7,21.8c4.8,2.8,10.7,2.8,15.5,0l37.7-21.8c4.8-2.8,7.7-7.9,7.7-13.4
		V65.1H15z"/>
	<path class="st2" d="M15,79.2v10.9c0,5.5,2.9,10.6,7.7,13.4l37.7,21.8c4.8,2.8,10.7,2.8,15.5,0l37.7-21.8c4.8-2.8,7.7-7.9,7.7-13.4
		V79.2H15z"/>
	<path id="XMLID_3_" class="st1" d="M46.2,38L46.2,38c-1.7,0-3-1.3-3-3l0,0c0-0.7-0.5-1.3-1.2-1.4c-0.8-0.1-1.4,0.5-1.4,1.3V35
		c0,1.7-1.3,3-3,3l0,0c-0.7,0-1.3,0.5-1.4,1.2c-0.1,0.8,0.5,1.4,1.3,1.4h0.1c1.7,0,3,1.3,3,3c0,0.6,0.4,1.2,1,1.3
		c0.8,0.2,1.6-0.5,1.6-1.3v-0.1c0-1.7,1.3-3,3-3h0.1c0.8,0,1.4-0.7,1.3-1.4C47.5,38.5,46.9,38,46.2,38z"/>
	<path id="XMLID_5_" class="st1" d="M109.7,63.8L109.7,63.8c-1.7,0-3-1.3-3-3l0,0c0-0.7-0.5-1.3-1.2-1.4c-0.8-0.1-1.4,0.5-1.4,1.3
		v0.1c0,1.7-1.3,3-3,3l0,0c-0.7,0-1.3,0.5-1.4,1.2c-0.1,0.8,0.5,1.4,1.3,1.4h0.1c1.7,0,3,1.3,3,3c0,0.6,0.4,1.2,1.1,1.3
		c0.8,0.2,1.6-0.5,1.6-1.3v-0.1c0-1.7,1.3-3,3-3h0.1c0.8,0,1.4-0.7,1.3-1.4C111,64.3,110.4,63.8,109.7,63.8z"/>
	<g>
		<g>
			<path class="st3" d="M88.5,44.2L88.5,44.2c0.7-1.5,1.7-2.9,2.9-4.1l4.6-4.6c1.6-1.6,1.6-4.2,0-5.8c-1.6-1.6-4.2-1.6-5.8,0
				l-4.6,4.6c-1.2,1.2-2.6,2.2-4.1,2.9l0,0c-1.5,0.7-2.9,1.7-4.1,2.9l-3.8,3.8c-2.3,2.3-2.3,5.9,0,8.2s5.9,2.3,8.2,0l3.8-3.8
				C86.8,47.1,87.8,45.7,88.5,44.2z"/>
		</g>
		<g>
			<path class="st4" d="M90.9,60.8c0,13-10.5,23.5-23.5,23.5S43.9,73.8,43.9,60.8s10.5-23.5,23.5-23.5S90.9,47.8,90.9,60.8z"/>
		</g>
		<g>
			<path class="st5" d="M67.4,37.3c-2.1,0-4,0.3-5.9,0.8c10.1,2.6,17.6,11.8,17.6,22.7s-7.5,20.1-17.6,22.7c1.9,0.5,3.9,0.8,5.9,0.8
				c13,0,23.5-10.5,23.5-23.5S80.4,37.3,67.4,37.3z"/>
		</g>
		<g>
			<polygon class="st6" points="83.2,101.8 51.6,101.8 45.5,69.5 89.3,69.5 			"/>
		</g>
		<g>
			<polygon class="st3" points="83.2,101.8 66.8,101.8 66.8,69.5 89.3,69.5 			"/>
		</g>
		<g>
			<path class="st1" d="M93.9,69.5H41c-1,0-1.8-0.8-1.8-1.8v-1.2c0-1,0.8-1.8,1.8-1.8h52.9c1,0,1.8,0.8,1.8,1.8v1.2
				C95.7,68.7,94.9,69.5,93.9,69.5z"/>
		</g>
		<g>
			<path class="st4" d="M71.8,57.6c-3.9,0-7,3.1-7,7s3.1,7,7,7c0.4,0,0.8,0,1.1-0.1v12.7c0,1.6,1.3,2.9,2.9,2.9s2.9-1.3,2.9-2.9
				V64.6C78.8,60.7,75.7,57.6,71.8,57.6z"/>
		</g>
		<g>
			<g>
				<path class="st7" d="M71.9,49.7c-0.3,0-0.7-0.2-0.8-0.6c-0.2-0.5,0.1-1,0.5-1.1l5.9-2.3c0.4-0.2,1,0,1.1,0.5
					c0.2,0.5-0.1,1-0.5,1.1l-5.9,2.3C72.1,49.7,72,49.7,71.9,49.7z"/>
			</g>
			<g>
				<path class="st8" d="M85.3,56c-0.1,0-0.2,0-0.4-0.1L79,53.3c-0.4-0.2-0.7-0.7-0.4-1.2c0.2-0.5,0.7-0.7,1.2-0.5l5.9,2.6
					c0.4,0.2,0.7,0.7,0.4,1.2C86,55.8,85.7,56,85.3,56z"/>
			</g>
			<g>
				<path class="st7" d="M64.8,51.3c-0.1,0-0.2,0-0.2,0l-5.3-1.4c-0.5-0.1-0.8-0.6-0.6-1.1c0.1-0.5,0.6-0.8,1.1-0.6l5.3,1.4
					c0.5,0.1,0.8,0.6,0.6,1.1C65.6,51,65.2,51.3,64.8,51.3z"/>
			</g>
			<g>
				<path class="st8" d="M54.8,60.1c-0.3,0-0.6-0.1-0.7-0.4c-0.3-0.4-0.2-1,0.2-1.2l4.9-3.3c0.4-0.3,1-0.2,1.2,0.2
					c0.3,0.4,0.2,1-0.2,1.2L55.3,60C55.2,60.1,55,60.1,54.8,60.1z"/>
			</g>
			<g>
				<path class="st9" d="M73.5,59.8c-0.1,0-0.2,0-0.4-0.1l-5.9-2.6c-0.4-0.2-0.7-0.7-0.4-1.2c0.2-0.5,0.7-0.7,1.2-0.5l5.9,2.6
					c0.4,0.2,0.7,0.7,0.4,1.2C74.2,59.6,73.9,59.8,73.5,59.8z"/>
			</g>
			<g>
				<path class="st9" d="M67.7,45.2c-0.1,0-0.3,0-0.4-0.1c-0.4-0.2-0.6-0.8-0.4-1.2l2.1-4.2c0.2-0.4,0.8-0.6,1.2-0.4
					s0.6,0.8,0.4,1.2l-2.1,4.2C68.3,45,68,45.2,67.7,45.2z"/>
			</g>
		</g>
	</g>
	<path class="st5" d="M22.8,103.6l14.2,8.2h62.5l14.2-8.2c4.8-2.8,7.7-7.9,7.7-13.4v-11H15v10.9C15,95.7,18,100.8,22.8,103.6z"/>
	<g class="st10">
		<path class="st11" d="M40.4,95.5V81.8h5.9v2h-2.9v3.4H46v2.1h-2.5v6.1L40.4,95.5L40.4,95.5z"/>
		<path class="st11" d="M48.7,95.5V81.8h3.8c0.9,0,1.7,0.1,2.4,0.3s1.2,0.6,1.6,1.1c0.4,0.5,0.6,1.3,0.6,2.2c0,0.6,0,1.1-0.1,1.5
			s-0.3,0.8-0.5,1.1c-0.2,0.3-0.6,0.6-1,0.8l1.9,6.6h-3.1l-1.5-6.1h-0.9v6.1L48.7,95.5L48.7,95.5z M51.7,87.6h0.8
			c0.4,0,0.8-0.1,1-0.2s0.4-0.4,0.5-0.7c0.1-0.3,0.1-0.6,0.1-1c0-0.6-0.1-1-0.3-1.4c-0.2-0.3-0.6-0.5-1.2-0.5h-1v3.8H51.7z"/>
		<path class="st11" d="M59.8,95.5V81.8H66v2.1h-3.1v3.4h2.4v2.1h-2.4v4.1h3.2v2H59.8z"/>
		<path class="st11" d="M71.9,95.7c-0.9,0-1.6-0.2-2.1-0.5c-0.6-0.3-1-0.8-1.3-1.4S68,92.3,68,91.3l2.6-0.4c0,0.6,0.1,1.1,0.2,1.4
			c0.1,0.4,0.2,0.6,0.4,0.8s0.4,0.2,0.6,0.2c0.3,0,0.5-0.1,0.6-0.3c0.1-0.2,0.1-0.4,0.1-0.7c0-0.6-0.1-1-0.4-1.4s-0.6-0.8-1.1-1.2
			l-1.2-1c-0.5-0.4-1-0.9-1.3-1.5S68,86,68,85.2c0-1.2,0.3-2,1-2.7c0.7-0.6,1.6-0.9,2.8-0.9c0.7,0,1.3,0.1,1.8,0.4s0.8,0.6,1,1
			s0.4,0.8,0.5,1.3c0.1,0.4,0.1,0.9,0.1,1.3l-2.6,0.3c0-0.4,0-0.8-0.1-1.1c0-0.3-0.1-0.5-0.2-0.7s-0.3-0.2-0.6-0.2
			c-0.3,0-0.5,0.1-0.6,0.4c-0.1,0.2-0.2,0.5-0.2,0.7c0,0.5,0.1,0.9,0.4,1.2s0.6,0.7,1,1l1.1,1c0.6,0.5,1.1,1.1,1.5,1.7
			s0.6,1.4,0.6,2.4c0,0.6-0.1,1.2-0.4,1.8c-0.3,0.5-0.7,0.9-1.2,1.2C73.3,95.5,72.7,95.7,71.9,95.7z"/>
		<path class="st11" d="M81.9,95.7c-1,0-1.9-0.2-2.5-0.6s-1-0.9-1.3-1.6c-0.2-0.7-0.4-1.5-0.4-2.4v-4.9c0-0.9,0.1-1.8,0.4-2.4
			s0.7-1.2,1.3-1.6s1.4-0.6,2.5-0.6c1,0,1.8,0.2,2.4,0.5s1,0.8,1.2,1.4s0.4,1.3,0.4,2.1v1.2h-3v-1.4c0-0.3,0-0.5,0-0.8
			s-0.1-0.5-0.2-0.6c-0.1-0.2-0.4-0.2-0.7-0.2c-0.3,0-0.5,0.1-0.7,0.3s-0.2,0.4-0.3,0.6c0,0.3-0.1,0.5-0.1,0.8v6.4
			c0,0.3,0,0.6,0.1,0.8s0.2,0.5,0.3,0.6c0.2,0.2,0.4,0.2,0.7,0.2c0.3,0,0.5-0.1,0.7-0.2c0.1-0.2,0.2-0.4,0.3-0.6
			c0-0.3,0.1-0.5,0.1-0.8v-1.4h3v1.2c0,0.8-0.1,1.5-0.3,2.1c-0.2,0.6-0.6,1.1-1.2,1.5C83.7,95.5,82.9,95.7,81.9,95.7z"/>
		<path class="st11" d="M92.4,95.7c-1,0-1.8-0.2-2.4-0.5c-0.6-0.4-1-0.9-1.3-1.6s-0.4-1.5-0.4-2.4v-5.1c0-0.9,0.1-1.8,0.4-2.4
			c0.3-0.7,0.7-1.2,1.3-1.5c0.6-0.4,1.4-0.5,2.4-0.5s1.9,0.2,2.5,0.5c0.6,0.4,1,0.9,1.3,1.5c0.3,0.7,0.4,1.5,0.4,2.4v5.1
			c0,0.9-0.1,1.7-0.4,2.4c-0.3,0.7-0.7,1.2-1.3,1.6C94.3,95.5,93.5,95.7,92.4,95.7z M92.4,93.5c0.3,0,0.5-0.1,0.7-0.2
			c0.1-0.2,0.2-0.4,0.3-0.6c0-0.2,0.1-0.5,0.1-0.8v-6.6c0-0.3,0-0.5-0.1-0.8c0-0.2-0.1-0.4-0.3-0.6c-0.1-0.2-0.4-0.2-0.7-0.2
			c-0.3,0-0.5,0.1-0.7,0.2c-0.1,0.2-0.2,0.4-0.3,0.6c0,0.2-0.1,0.5-0.1,0.8v6.6c0,0.3,0,0.5,0.1,0.8c0,0.2,0.1,0.5,0.3,0.6
			C91.9,93.5,92.1,93.5,92.4,93.5z"/>
	</g>
	<g class="st10">
		<path class="st11" d="M35.8,106.8c-0.5,0-0.9-0.1-1.2-0.3c-0.3-0.2-0.5-0.5-0.6-0.9s-0.2-0.9-0.2-1.4V101c0-0.5,0.1-1,0.2-1.4
			s0.3-0.7,0.6-0.9c0.3-0.2,0.7-0.3,1.3-0.3c0.5,0,0.9,0.1,1.2,0.3c0.3,0.2,0.5,0.4,0.6,0.8s0.2,0.8,0.2,1.3v0.3h-0.7v-0.3
			c0-0.4,0-0.7-0.1-1s-0.2-0.4-0.4-0.6c-0.2-0.1-0.4-0.2-0.8-0.2c-0.4,0-0.7,0.1-0.9,0.2s-0.3,0.4-0.4,0.7c-0.1,0.3-0.1,0.6-0.1,1
			v3.4c0,0.4,0,0.7,0.1,1s0.2,0.5,0.4,0.6c0.2,0.2,0.5,0.2,0.8,0.2s0.6-0.1,0.8-0.2c0.2-0.2,0.3-0.4,0.4-0.7s0.1-0.6,0.1-1v-1h-1.2
			v-0.6h1.9v4h-0.5l-0.1-0.9c-0.1,0.3-0.3,0.6-0.5,0.8C36.5,106.7,36.2,106.8,35.8,106.8z"/>
		<path class="st11" d="M44.2,106.7v-8.2h3v0.6H45v3.1h1.8v0.6H45v3.4h2.2v0.6L44.2,106.7L44.2,106.7z"/>
		<path class="st11" d="M53.3,106.7v-8.2h0.8v7.6h2.3v0.6H53.3z"/>
		<path class="st11" d="M62.3,106.7v-8.2H63v7.6h2.3v0.6H62.3z"/>
		<path class="st11" d="M70.7,106.7l1.7-8.2h0.8l1.7,8.2h-0.8l-0.4-2.2h-2l-0.4,2.2H70.7z M72,103.9h1.7l-0.9-4.4L72,103.9z"/>
		<path class="st11" d="M81.7,106.7v-7.6h-1.5v-0.6H84v0.6h-1.5v7.6H81.7z"/>
		<path class="st11" d="M91,106.7v-7.6h-1.5v-0.6h3.8v0.6h-1.5v7.6H91z"/>
		<path class="st11" d="M101.2,106.8c-0.5,0-1-0.1-1.3-0.3c-0.3-0.2-0.5-0.5-0.6-0.9s-0.2-0.8-0.2-1.3v-3.4c0-0.5,0.1-0.9,0.2-1.3
			s0.4-0.7,0.7-0.9c0.3-0.2,0.7-0.3,1.3-0.3c0.5,0,0.9,0.1,1.3,0.3c0.3,0.2,0.5,0.5,0.7,0.9c0.1,0.4,0.2,0.8,0.2,1.3v3.4
			c0,0.5-0.1,0.9-0.2,1.3s-0.3,0.7-0.6,0.9C102.1,106.7,101.7,106.8,101.2,106.8z M101.2,106.1c0.4,0,0.6-0.1,0.8-0.2
			c0.2-0.1,0.3-0.3,0.4-0.6c0.1-0.3,0.1-0.6,0.1-0.9v-3.7c0-0.3,0-0.6-0.1-0.9s-0.2-0.5-0.4-0.6c-0.2-0.1-0.5-0.2-0.8-0.2
			c-0.4,0-0.6,0.1-0.8,0.2c-0.2,0.1-0.3,0.3-0.4,0.6c-0.1,0.3-0.1,0.6-0.1,0.9v3.7c0,0.3,0,0.6,0.1,0.9s0.2,0.5,0.4,0.6
			C100.5,106.1,100.8,106.1,101.2,106.1z"/>
	</g>
</g>
</svg>
